<?xml version="1.0" standalone="no"?><!DOCTYPE svg PUBLIC "-//W3C//DTD SVG 1.1//EN" "http://www.w3.org/Graphics/SVG/1.1/DTD/svg11.dtd"><svg t="1559450034186" class="icon" style="" viewBox="0 0 1024 1024" version="1.1" xmlns="http://www.w3.org/2000/svg" p-id="1247" xmlns:xlink="http://www.w3.org/1999/xlink" width="40" height="40"><defs><style type="text/css"></style></defs><path d="M829.7 896.5H174.1c-41.5 0-75.2-33.7-75.2-75.2V420.8c0-41.5 33.7-75.2 75.2-75.2h655.6c41.5 0 75.2 33.7 75.2 75.2v400.5c0 41.5-33.7 75.2-75.2 75.2z m-655.6-508c-17.8 0-32.3 14.5-32.3 32.3v400.5c0 17.8 14.5 32.3 32.3 32.3h655.6c17.8 0 32.3-14.5 32.3-32.3V420.8c0-17.8-14.5-32.3-32.3-32.3H174.1z" fill="#231815" p-id="1248"></path><path d="M699.2 773.9H304.6c-17.9 0-32.4-14.5-32.4-32.4v-241c0-17.9 14.5-32.4 32.4-32.4h394.7c17.9 0 32.4 14.5 32.4 32.4v241.1c-0.1 17.9-14.6 32.3-32.5 32.3z" fill="#FEE632" p-id="1249"></path><path d="M501.9 565.6m-50.8 0a50.8 50.8 0 1 0 101.6 0 50.8 50.8 0 1 0-101.6 0Z" fill="#231815" p-id="1250"></path><path d="M501.9 731.2c-11.9 0-21.5-9.6-21.5-21.5V601.4h43v108.3c0 11.9-9.7 21.5-21.5 21.5zM747.6 360.1h-43V238.6c0-34.7-10.5-67.3-29.6-91.7-17.9-22.8-41.1-35.4-65.3-35.4H394c-24.2 0-47.4 12.6-65.3 35.4-19.1 24.4-29.6 56.9-29.6 91.7v121.6h-43V238.6c0-93.8 61.8-170.1 137.8-170.1h215.8c76 0 137.8 76.3 137.8 170.1v121.5z" fill="#231815" p-id="1251"></path></svg>