<?xml version="1.0" standalone="no"?><!DOCTYPE svg PUBLIC "-//W3C//DTD SVG 1.1//EN" "http://www.w3.org/Graphics/SVG/1.1/DTD/svg11.dtd"><svg t="1559265222011" class="icon" style="" viewBox="0 0 1024 1024" version="1.1" xmlns="http://www.w3.org/2000/svg" p-id="1031" xmlns:xlink="http://www.w3.org/1999/xlink" width="40" height="40"><defs><style type="text/css"></style></defs><path d="M715.757 853.758c-14.978-0.001-34.261-4.837-57.312-14.372C608.258 818.626 557.238 808.1 506.8 808.1c-50.437 0-101.457 10.526-151.642 31.286-23.055 9.536-42.337 14.372-57.312 14.372-15.505 0-22.095-5.183-25.703-9.081-11.017-11.902-15.527-38.546-12.702-75.022 8.418-108.7-23.106-205.894-93.698-288.88-26.326-30.948-37.931-56.889-32.677-73.045 5.246-16.133 29.835-30.263 69.239-39.786 105.822-25.574 188.367-85.652 245.34-178.565 21.226-34.614 42.234-53.677 59.154-53.677s37.928 19.063 59.156 53.678c56.973 92.912 139.518 152.99 245.34 178.564 39.4 9.523 63.989 23.652 69.235 39.785 5.254 16.156-6.351 42.098-32.676 73.045-70.589 82.984-102.114 180.177-93.699 288.879 2.827 36.483-1.682 63.128-12.695 75.027-3.607 3.896-10.195 9.077-25.698 9.077l-0.005 0.001z" fill="#FFFFFF" p-id="1032"></path><path d="M506.8 160.708c0.852 0.19 14.704 4.007 37.843 41.74C605.2 301.203 692.939 365.06 805.422 392.244c44.418 10.736 51.292 23.116 51.329 23.197 0.031 0.127 1.765 14.218-27.937 49.136-75.021 88.195-108.526 191.487-99.582 307.01 3.458 44.635-5.711 55.66-6.179 56.172-0.519 0.281-2.811 0.999-7.297 0.999-8.029 0-22.832-2.164-47.755-12.474-53.232-22.019-107.467-33.184-161.2-33.184-53.733 0-107.968 11.165-161.198 33.184-24.924 10.31-39.727 12.474-47.756 12.474-4.486 0-6.776-0.719-7.292-0.999-0.464-0.506-9.646-11.518-6.187-56.174 8.947-115.519-24.557-218.812-99.581-307.009-29.702-34.916-27.97-49.008-27.952-49.095 0.049-0.12 6.925-12.501 51.344-23.236 112.485-27.185 200.224-91.042 260.78-189.796 23.138-37.734 36.989-41.551 37.841-41.741m0-50.007c-26.822 0-53.644 21.87-80.466 65.609-53.641 87.477-130.277 143.256-229.901 167.333-99.626 24.078-116.203 75.188-49.732 153.329 66.471 78.143 95.743 168.394 87.815 270.752-5.733 74.019 15.382 111.033 63.33 111.033 18.357 0 40.643-5.422 66.868-16.27 47.362-19.591 94.724-29.387 142.087-29.387 47.363 0 94.725 9.796 142.088 29.387 26.219 10.846 48.513 16.27 66.867 16.27 47.957 0 69.062-37.008 63.326-111.033-7.924-102.358 21.345-192.608 87.817-270.752 66.468-78.142 49.892-129.251-49.73-153.329-99.626-24.077-176.26-79.855-229.901-167.333-26.823-43.739-53.646-65.609-80.468-65.609z" fill="#1A1A1A" p-id="1033"></path><path d="M468.151 362.061c-25.768 41.906-62.575 68.628-110.423 80.164-47.853 11.533-55.814 36.019-23.886 73.453 31.923 37.435 45.984 80.672 42.177 129.707-3.81 49.037 17.034 64.169 62.535 45.398 45.496-18.772 90.996-18.772 136.492 0 45.497 18.771 66.342 3.639 62.535-45.398-3.807-49.035 10.251-92.272 42.177-129.707 31.927-37.434 23.966-61.92-23.885-73.453-47.85-11.536-84.659-38.258-110.424-80.164-25.77-41.91-51.533-41.91-77.298 0z" fill="#FFCD36" p-id="1034"></path></svg>