<?xml version="1.0" standalone="no"?><!DOCTYPE svg PUBLIC "-//W3C//DTD SVG 1.1//EN" "http://www.w3.org/Graphics/SVG/1.1/DTD/svg11.dtd"><svg t="1559294390702" class="icon" style="" viewBox="0 0 1024 1024" version="1.1" xmlns="http://www.w3.org/2000/svg" p-id="9410" xmlns:xlink="http://www.w3.org/1999/xlink" width="40" height="40"><defs><style type="text/css"></style></defs><path d="M769.097 935.636c-4.457 0-8.93-1.063-13.026-3.216L512 804.104 267.93 932.42a28 28 0 0 1-40.627-29.518l46.614-271.776L76.46 438.653a27.999 27.999 0 0 1 15.519-47.76l272.878-39.651 122.035-247.27a27.998 27.998 0 0 1 50.216 0l122.035 247.27 272.878 39.651a28.002 28.002 0 0 1 15.518 47.76L750.083 631.126l46.613 271.776a28 28 0 0 1-27.599 32.734zM512 744.47c4.476 0 8.951 1.072 13.029 3.216l206.883 108.766-39.511-230.367a27.995 27.995 0 0 1 8.053-24.784l167.37-163.146-231.301-33.61a27.998 27.998 0 0 1-21.082-15.317L512 179.632 408.559 389.227a28 28 0 0 1-21.082 15.317l-231.301 33.61L323.547 601.3a28.004 28.004 0 0 1 8.053 24.784l-39.511 230.367L498.97 747.686A27.99 27.99 0 0 1 512 744.47z" p-id="9411" fill="#8a8a8a"></path></svg>