<?xml version="1.0" standalone="no"?><!DOCTYPE svg PUBLIC "-//W3C//DTD SVG 1.1//EN" "http://www.w3.org/Graphics/SVG/1.1/DTD/svg11.dtd"><svg t="1559265123537" class="icon" style="" viewBox="0 0 1024 1024" version="1.1" xmlns="http://www.w3.org/2000/svg" p-id="898" xmlns:xlink="http://www.w3.org/1999/xlink" width="40" height="40"><defs><style type="text/css"></style></defs><path d="M512.999 885.449c-58.928 0-115.324-13.273-167.622-39.452-7.058-3.533-15.782-5.251-26.668-5.251-17.682 0-40.086 4.369-63.807 8.995-21.279 4.15-43.282 8.441-57.486 8.441-0.367 0-0.717-0.003-1.051-0.009 1.796-9.486 7.938-25.72 11.233-34.428 11.833-31.271 24.068-63.608 6.258-87.125C164.23 671.094 138 592.885 138 510.449c0-50.636 9.912-99.745 29.459-145.96 18.886-44.652 45.928-84.759 80.375-119.207 34.447-34.447 74.554-61.489 119.205-80.375 46.216-19.547 95.323-29.459 145.959-29.459 50.636 0 99.744 9.912 145.959 29.459 44.652 18.886 84.759 45.928 119.207 80.376 34.447 34.447 61.489 74.554 80.376 119.206 19.549 46.215 29.46 95.324 29.46 145.96 0 50.635-9.911 99.743-29.459 145.958-18.887 44.651-45.929 84.759-80.377 119.206-34.447 34.447-74.554 61.49-119.206 80.376-46.216 19.548-95.323 29.46-145.959 29.46z" fill="#FFFFFF" p-id="899"></path><path d="M512.998 160.447c47.272 0 93.103 9.247 136.221 27.484 41.672 17.626 79.108 42.869 111.267 75.028 32.16 32.16 57.403 69.595 75.029 111.267C853.753 417.345 863 463.177 863 510.449c0 47.271-9.247 93.102-27.484 136.219-17.626 41.672-42.869 79.108-75.029 111.267-32.16 32.16-69.596 57.403-111.268 75.029-43.118 18.237-88.949 27.485-136.221 27.485-27.629 0-55.118-3.222-81.704-9.577a347.775 347.775 0 0 1-74.727-27.231c-10.612-5.312-22.995-7.895-37.856-7.895-20.098-0.001-43.657 4.594-68.598 9.458-5.755 1.122-11.738 2.289-17.616 3.373 12.57-33.371 26.424-73.859 1.288-107.05-22.53-29.748-40.045-62.65-52.059-97.79C169.301 587.39 163 549.275 163 510.449c0-47.272 9.247-93.104 27.484-136.222 17.626-41.672 42.869-79.108 75.028-111.267 32.159-32.16 69.595-57.403 111.266-75.028 43.118-18.238 88.949-27.485 136.22-27.485m0-50C292.085 110.447 113 289.532 113 510.449c0 90.617 30.133 174.197 80.927 241.265 19.487 25.732-41.962 106.397-16.927 126.733 4.19 3.404 11.352 4.735 20.416 4.735 32.775 0 90.322-17.438 121.294-17.437 6.476 0 11.793 0.763 15.477 2.607 53.812 26.937 114.54 42.097 178.812 42.097 220.915 0 400.002-179.088 400.002-400C913 289.532 733.913 110.447 512.998 110.447z" fill="#1A1A1A" p-id="900"></path><path d="M512.999 327.114c101.252 0 183.335 82.083 183.335 183.337 0 101.25-82.083 183.332-183.335 183.332-101.25 0-183.333-82.082-183.333-183.332 0-101.254 82.083-183.337 183.333-183.337z" fill="#FFCD36" p-id="901"></path></svg>