<?xml version="1.0" standalone="no"?><!DOCTYPE svg PUBLIC "-//W3C//DTD SVG 1.1//EN" "http://www.w3.org/Graphics/SVG/1.1/DTD/svg11.dtd"><svg t="1559177064108" class="icon" style="" viewBox="0 0 1024 1024" version="1.1" xmlns="http://www.w3.org/2000/svg" p-id="1771" xmlns:xlink="http://www.w3.org/1999/xlink" width="50" height="50"><defs><style type="text/css"></style></defs><path d="M512 512m-512 0a512 512 0 1 0 1024 0 512 512 0 1 0-1024 0Z" fill="#FFFFFF" p-id="1772"></path><path d="M178.4 688.8c111.2-44 222.4-66.4 333.6-66.4s222.4 22.4 333.6 66.4c30.4 12 50.4 41.6 50.4 74.4 0 28.8-24 52.8-52.8 52.8H180.8c-28.8 0-52.8-24-52.8-52.8 0-32.8 20-62.4 50.4-74.4z" fill="#D6F1FF" p-id="1773"></path><path d="M843.2 830.4H180.8c-36.8 0-67.2-30.4-67.2-67.2 0-39.2 23.2-73.6 59.2-88 112-44.8 226.4-67.2 338.4-67.2 112 0 226.4 22.4 338.4 67.2 36 14.4 59.2 48.8 59.2 87.2 1.6 37.6-28.8 68-65.6 68zM184 701.6c-25.6 10.4-41.6 34.4-41.6 61.6 0 21.6 17.6 39.2 38.4 39.2h662.4c21.6 0 38.4-17.6 38.4-38.4 0-27.2-16-51.2-41.6-61.6-108.8-43.2-219.2-64.8-328-64.8-108.8-0.8-219.2 20.8-328 64z" fill="#333333" p-id="1774"></path><path d="M178.4 688.8c111.2-44 222.4-66.4 333.6-66.4s222.4 22.4 333.6 66.4c30.4 12 50.4 41.6 50.4 74.4 0 28.8-24 52.8-52.8 52.8H180.8c-28.8 0-52.8-24-52.8-52.8 0-32.8 20-62.4 50.4-74.4z" fill="#D6F1FF" p-id="1775"></path><path d="M843.2 830.4H180.8c-36.8 0-67.2-30.4-67.2-67.2 0-39.2 23.2-73.6 59.2-88 112-44.8 226.4-67.2 338.4-67.2 112 0 226.4 22.4 338.4 67.2 36 14.4 59.2 48.8 59.2 87.2 1.6 37.6-28.8 68-65.6 68zM184 701.6c-25.6 10.4-41.6 34.4-41.6 61.6 0 21.6 17.6 39.2 38.4 39.2h662.4c21.6 0 38.4-17.6 38.4-38.4 0-27.2-16-51.2-41.6-61.6-108.8-43.2-219.2-64.8-328-64.8-108.8-0.8-219.2 20.8-328 64z" fill="#333333" p-id="1776"></path><path d="M664.8 429.6l-4.8 48.8c-4 44-30.4 81.6-67.2 102.4-9.6 14.4-14.4 28.8-14.4 42.4 0 24.8 15.2 49.6 44.8 74.4H400.8c29.6-23.2 44.8-47.2 44.8-72.8 0-15.2-4.8-29.6-14.4-44.8-36-20.8-61.6-57.6-66.4-101.6l-4.8-48.8h-4.8c-19.2 0-35.2-16-35.2-35.2 0-18.4 14.4-33.6 32.8-35.2l-8-79.2C336 187.2 403.2 105.6 496 96h16c92.8 0 168 75.2 168 168 0 5.6 0 11.2-0.8 16.8l-8 79.2c18.4 1.6 32.8 16.8 32.8 35.2 0 19.2-16 35.2-35.2 35.2-1.6-0.8-2.4-0.8-4-0.8z" fill="#FFDAC4" p-id="1777"></path><path d="M662.4 712H359.2l32.8-25.6c25.6-20 39.2-40.8 39.2-61.6 0-11.2-4-22.4-10.4-34.4-39.2-24-65.6-64.8-70.4-111.2l-4-36.8c-23.2-4-40.8-24-40.8-48.8 0-20.8 12.8-38.4 31.2-45.6l-6.4-66.4c-4.8-48.8 9.6-96 40.8-133.6 31.2-37.6 74.4-60.8 123.2-65.6 5.6-0.8 12-0.8 17.6-0.8 100.8 0 182.4 82.4 182.4 182.4 0 6.4 0 12-0.8 17.6l-6.4 66.4c18.4 7.2 31.2 24.8 31.2 45.6 0 24-17.6 44.8-40.8 48.8l-4 37.6c-4.8 46.4-31.2 87.2-71.2 111.2-6.4 11.2-10.4 21.6-10.4 32 0 20.8 13.6 41.6 39.2 64l31.2 24.8z m-226.4-28h153.6c-16-20-24.8-40-24.8-60.8 0-16.8 5.6-33.6 16.8-50.4l1.6-3.2 3.2-1.6c33.6-19.2 56-52.8 60-91.2l6.4-63.2 14.4 1.6h2.4c11.2 0 20.8-9.6 20.8-20.8 0-11.2-8.8-20-19.2-20.8l-15.2-0.8 8.8-93.6c0.8-4.8 0.8-10.4 0.8-15.2 0-84.8-68.8-154.4-154.4-154.4-4.8 0-10.4 0-15.2 0.8-40.8 4-77.6 24-104 56s-38.4 72-34.4 112.8L368 372.8l-14.4 0.8c-11.2 0.8-19.2 9.6-19.2 20.8 0 12 9.6 20.8 20.8 20.8h2.4l14.4-1.6 6.4 63.2c4 38.4 25.6 72 59.2 91.2l3.2 1.6 1.6 3.2c11.2 16.8 16.8 34.4 16.8 52 0 20.8-8 40-23.2 59.2z" fill="#333333" p-id="1778"></path><path d="M344.8 284.8L344 280c-8.8-92.8 58.4-174.4 151.2-184H512c92.8 0 168 75.2 168 168 0 5.6 0 11.2-0.8 16.8l-0.8 4.8h-23.2c-8.8 0-16-7.2-16-16s-7.2-16-16-16H397.6c-8.8 0-16 7.2-16 16s-7.2 16-16 16h-20.8z" fill="#333333" p-id="1779"></path><path d="M692 299.2H656c-16.8 0-29.6-13.6-29.6-29.6 0-0.8-0.8-1.6-1.6-1.6H397.6c-0.8 0-1.6 0.8-1.6 1.6 0 16.8-13.6 29.6-29.6 29.6h-33.6l-1.6-16.8c-4.8-48.8 9.6-96 40.8-133.6 31.2-37.6 74.4-60.8 123.2-65.6 5.6-0.8 12-0.8 17.6-0.8 100-0.8 181.6 81.6 181.6 181.6 0 6.4 0 12-0.8 17.6l-1.6 17.6z m-294.4-60h225.6c16.8 0 29.6 13.6 29.6 29.6 0 0.8 0.8 1.6 1.6 1.6h10.4v-7.2c0-84.8-68.8-154.4-154.4-154.4-4.8 0-10.4 0-15.2 0.8-40.8 4-77.6 24-104 56-24 29.6-36.8 66.4-35.2 104.8h8c0.8 0 1.6-0.8 1.6-1.6 2.4-16 16-29.6 32-29.6zM284.8 650.4l104.8-27.2 56.8 184.8H284.8zM744 650.4l-104.8-27.2-56 184.8H744z" fill="#333333" p-id="1780"></path><path d="M451.2 341.6c4.8 0 8.8 4 8.8 8.8v35.2c0 4.8-4 8.8-8.8 8.8-4.8 0-8.8-4-8.8-8.8v-35.2c0-4.8 4-8.8 8.8-8.8z" fill="#333333" p-id="1781"></path><path d="M572.8 341.6c4.8 0 8.8 4 8.8 8.8v35.2c0 4.8-4 8.8-8.8 8.8-4.8 0-8.8-4-8.8-8.8v-35.2c0-4.8 4-8.8 8.8-8.8z" fill="#333333" p-id="1782"></path><path d="M511.2 683.2c0.8-1.6 2.4-2.4 3.2-3.2l115.2-57.6c1.6-0.8 2.4-0.8 4-0.8 4.8 0 8.8 4 8.8 8.8v114.4c0 1.6 0 2.4-0.8 4-2.4 4-7.2 6.4-12 4l-115.2-57.6c-1.6-0.8-2.4-1.6-3.2-3.2-0.8 1.6-2.4 2.4-3.2 3.2l-115.2 57.6c-4 2.4-9.6 0-12-4-0.8-1.6-0.8-2.4-0.8-4V630.4c0-4.8 4-8.8 8.8-8.8 1.6 0 2.4 0 4 0.8L507.2 680c1.6 0.8 3.2 1.6 4 3.2z" fill="#0072FF" p-id="1783"></path><path d="M633.6 766.4c-3.2 0-6.4-0.8-9.6-2.4l-112.8-56-112.8 56c-10.4 5.6-23.2 0.8-28.8-9.6-1.6-3.2-2.4-6.4-2.4-9.6V630.4c0-12 9.6-21.6 21.6-21.6 3.2 0 6.4 0.8 9.6 2.4l112.8 56 112.8-56c3.2-1.6 6.4-2.4 9.6-2.4 12 0 21.6 9.6 21.6 21.6v114.4c0 3.2-0.8 6.4-2.4 9.6-4 7.2-11.2 12-19.2 12zM527.2 688l102.4 51.2V636.8L527.2 688z m-134.4-51.2v101.6L495.2 688l-102.4-51.2z m-6.4-3.2z m248.8 0z" fill="#333333" p-id="1784"></path><path d="M512 768m-16 0a16 16 0 1 0 32 0 16 16 0 1 0-32 0Z" fill="#FFFFFF" p-id="1785"></path></svg>