<?xml version="1.0" standalone="no"?><!DOCTYPE svg PUBLIC "-//W3C//DTD SVG 1.1//EN" "http://www.w3.org/Graphics/SVG/1.1/DTD/svg11.dtd"><svg t="1559133064542" class="icon" style="" viewBox="0 0 1025 1024" version="1.1" xmlns="http://www.w3.org/2000/svg" p-id="2098" xmlns:xlink="http://www.w3.org/1999/xlink" width="50.048828125" height="50"><defs><style type="text/css"></style></defs><path d="M839.946482 389.336542c0-179.917116-147.043874-325.820973-328.561518-325.820973-181.460336 0-328.561518 145.903857-328.561518 325.820973 0 59.446709 16.307166 114.955546 44.308214 162.939652l-0.351011 0 284.574638 407.316894 284.690277-407.316894-0.379665 0C823.757001 504.292088 839.946482 448.783251 839.946482 389.336542M511.413617 552.215816c-90.716353 0-164.280247-72.922251-164.280247-162.907928 0-89.927346 73.563895-162.907928 164.280247-162.907928 90.802315 0 164.280247 72.980582 164.280247 162.907928C675.693865 479.293565 602.215932 552.215816 511.413617 552.215816" p-id="2099" fill="#707070"></path></svg>