<?xml version="1.0" standalone="no"?><!DOCTYPE svg PUBLIC "-//W3C//DTD SVG 1.1//EN" "http://www.w3.org/Graphics/SVG/1.1/DTD/svg11.dtd"><svg t="1559192952892" class="icon" style="" viewBox="0 0 1024 1024" version="1.1" xmlns="http://www.w3.org/2000/svg" p-id="2239" xmlns:xlink="http://www.w3.org/1999/xlink" width="40" height="40"><defs><style type="text/css"></style></defs><path d="M959.1 505.2c-0.8-2.2-2.1-4.2-3.7-6-214.7-279.5-380.6-284.8-443.1-286.8-2.6-0.1-5.4-0.1-8.4-0.1-77.8 0-237.5 37-433.4 284.6-8.1 8.4-8.5 18.4-0.4 28.7C266.4 773.7 426.2 810.7 504 810.7c2.9 0 5.7-0.1 8.3-0.1 62.5-2 228.2-7.4 442.7-286.3 2.8-2.8 4.8-6.5 5.2-10.7 0.4-2.9 0-5.8-1.1-8.4zM511.2 774.9c-2.3 0.1-4.7 0.1-7.2 0.1-70.5 0-215.5-34.5-399.5-263.5C288.4 282.5 433.4 248 503.9 248c2.5 0 5 0 7.2 0.1 57.2 1.8 207.8 6.7 408.6 263.4C719 768.2 568.4 773.1 511.2 774.9z m5.6-434.7c-94.5 0-171.3 76.8-171.3 171.3 0 94.5 76.8 171.3 171.3 171.3 94.5 0 171.3-76.8 171.3-171.3 0-94.4-76.8-171.3-171.3-171.3z m0 306.9c-74.8 0-135.6-60.8-135.6-135.6S442 375.9 516.8 375.9s135.6 60.8 135.6 135.6-60.8 135.6-135.6 135.6z m-49.6-233c-18.1 0-32.8 14.7-32.8 32.8 0 18.1 14.7 32.7 32.8 32.7 18.1 0 32.7-14.7 32.7-32.7 0.1-18.1-14.6-32.8-32.7-32.8z" p-id="2240" fill="#707070"></path></svg>