<?xml version="1.0" standalone="no"?><!DOCTYPE svg PUBLIC "-//W3C//DTD SVG 1.1//EN" "http://www.w3.org/Graphics/SVG/1.1/DTD/svg11.dtd"><svg t="1559119597632" class="icon" style="" viewBox="0 0 1024 1024" version="1.1" xmlns="http://www.w3.org/2000/svg" p-id="2026" xmlns:xlink="http://www.w3.org/1999/xlink" width="50" height="50"><defs><style type="text/css"></style></defs><path d="M681.322 538.268c0.011 0 0.025 0 0.040 0 6.564 0 12.506-2.667 16.801-6.978 4.312-4.31 6.979-10.264 6.979-16.841 0-6.577-2.666-12.532-6.978-16.84l-345.758-345.736c-9.302-9.302-24.375-9.302-33.681 0s-9.302 24.375 0 33.681l345.755 345.741c4.298 4.308 10.241 6.974 16.808 6.974 0.013 0 0.025 0 0.038 0z" fill="#707070" p-id="2027"></path><path d="M336.843 882.748c0.011 0 0.025 0 0.040 0 6.564 0 12.506-2.667 16.801-6.977l344.478-344.481c9.302-9.302 9.302-24.375 0-33.681s-24.375-9.302-33.681 0l-344.477 344.483c-4.313 4.31-6.982 10.265-6.982 16.843 0 13.15 10.66 23.811 23.812 23.811 0.005 0 0.008 0 0.011 0z" fill="#707070" p-id="2028"></path></svg>