<?xml version="1.0" standalone="no"?><!DOCTYPE svg PUBLIC "-//W3C//DTD SVG 1.1//EN" "http://www.w3.org/Graphics/SVG/1.1/DTD/svg11.dtd"><svg t="1559177130471" class="icon" style="" viewBox="0 0 1024 1024" version="1.1" xmlns="http://www.w3.org/2000/svg" p-id="1915" xmlns:xlink="http://www.w3.org/1999/xlink" width="50" height="50"><defs><style type="text/css"></style></defs><path d="M512 512m-512 0a512 512 0 1 0 1024 0 512 512 0 1 0-1024 0Z" fill="#FFFFFF" p-id="1916"></path><path d="M409.6 176h204.8c14.4 0 25.6 11.2 25.6 25.6v76.8c0 14.4-11.2 25.6-25.6 25.6H409.6c-14.4 0-25.6-11.2-25.6-25.6v-76.8c0-14.4 11.2-25.6 25.6-25.6z m54.4 48c-8.8 0-16 7.2-16 16v32c0 8.8 7.2 16 16 16h96c8.8 0 16-7.2 16-16v-32c0-8.8-7.2-16-16-16H464z" fill="#D6F1FF" p-id="1917"></path><path d="M614.4 316.8H409.6c-20.8 0-38.4-17.6-38.4-38.4v-76.8c0-20.8 17.6-38.4 38.4-38.4h204.8c20.8 0 38.4 17.6 38.4 38.4v76.8c0 20.8-17.6 38.4-38.4 38.4z m-32.8-25.6h32.8c7.2 0 12.8-5.6 12.8-12.8v-76.8c0-7.2-5.6-12.8-12.8-12.8H409.6c-7.2 0-12.8 5.6-12.8 12.8v76.8c0 7.2 5.6 12.8 12.8 12.8h32.8c-4.8-4.8-7.2-12-7.2-19.2v-32c0-16 12.8-28.8 28.8-28.8h96c16 0 28.8 12.8 28.8 28.8v32c0 7.2-2.4 14.4-7.2 19.2zM464 236.8c-1.6 0-3.2 1.6-3.2 3.2v32c0 1.6 1.6 3.2 3.2 3.2h96c1.6 0 3.2-1.6 3.2-3.2v-32c0-1.6-1.6-3.2-3.2-3.2H464z" fill="#333333" p-id="1918"></path><path d="M217.6 288h588.8c14.4 0 25.6 11.2 25.6 25.6v476.8c0 14.4-11.2 25.6-25.6 25.6H217.6c-14.4 0-25.6-11.2-25.6-25.6V313.6c0-14.4 11.2-25.6 25.6-25.6z" fill="#D6F1FF" p-id="1919"></path><path d="M188 459.2h648v25.6h-648z" fill="#333333" p-id="1920"></path><path d="M448 480c0 35.2 32 64 72 64s72-28.8 72-64" fill="#0072FF" p-id="1921"></path><path d="M520 556.8c-46.4 0-84.8-34.4-84.8-76.8h25.6c0 28 26.4 51.2 59.2 51.2 32.8 0 59.2-23.2 59.2-51.2h25.6c0 42.4-38.4 76.8-84.8 76.8z" fill="#333333" p-id="1922"></path><path d="M806.4 828.8H217.6c-20.8 0-38.4-17.6-38.4-38.4V313.6c0-20.8 17.6-38.4 38.4-38.4h588.8c20.8 0 38.4 17.6 38.4 38.4v476.8c0 20.8-17.6 38.4-38.4 38.4z m-588.8-528c-7.2 0-12.8 5.6-12.8 12.8v476.8c0 7.2 5.6 12.8 12.8 12.8h588.8c7.2 0 12.8-5.6 12.8-12.8V313.6c0-7.2-5.6-12.8-12.8-12.8H217.6z" fill="#333333" p-id="1923"></path></svg>