<?xml version="1.0" standalone="no"?><!DOCTYPE svg PUBLIC "-//W3C//DTD SVG 1.1//EN" "http://www.w3.org/Graphics/SVG/1.1/DTD/svg11.dtd"><svg t="1559177187116" class="icon" style="" viewBox="0 0 1024 1024" version="1.1" xmlns="http://www.w3.org/2000/svg" p-id="2331" xmlns:xlink="http://www.w3.org/1999/xlink" width="50" height="50"><defs><style type="text/css"></style></defs><path d="M512 512m-512 0a512 512 0 1 0 1024 0 512 512 0 1 0-1024 0Z" fill="#FFFFFF" p-id="2332"></path><path d="M226.4 587.2L511.2 872c7.2 7.2 20 7.2 27.2 0l294.4-294.4c82.4-82.4 82.4-216 0-298.4s-216-82.4-298.4 0L226.4 587.2z" fill="#FF7400" p-id="2333"></path><path d="M524.8 890.4c-8 0-16-3.2-22.4-9.6L208 587.2l316.8-316.8c87.2-87.2 229.6-87.2 316.8 0 87.2 87.2 87.2 229.6 0 316.8l-294.4 294.4c-6.4 5.6-14.4 8.8-22.4 8.8zM244 587.2L520 863.2c2.4 2.4 6.4 2.4 8.8 0l294.4-294.4c77.6-77.6 77.6-203.2 0-280.8s-203.2-77.6-280.8 0L244 587.2z" fill="#333333" p-id="2334"></path><path d="M821.6 587.2L536.8 872c-7.2 7.2-20 7.2-27.2 0L215.2 578.4c-82.4-82.4-82.4-216 0-298.4s216-82.4 298.4 0l308 307.2z" fill="#FFB900" p-id="2335"></path><path d="M523.2 890.4c-8.8 0-16.8-3.2-22.4-9.6L206.4 587.2c-87.2-87.2-87.2-229.6 0-316.8 87.2-87.2 229.6-87.2 316.8 0L840 587.2l-294.4 294.4c-5.6 5.6-13.6 8.8-22.4 8.8zM364.8 230.4c-51.2 0-101.6 19.2-140 58.4-77.6 77.6-77.6 203.2 0 280.8L519.2 864c1.6 1.6 3.2 1.6 4.8 1.6 0.8 0 3.2 0 4.8-1.6l276-276-300-299.2c-38.4-39.2-89.6-58.4-140-58.4z" fill="#333333" p-id="2336"></path></svg>